#!OML:ASF F:\VICON\USERDATA\INSTALL\Justin_Nancy\Justin_Nancy.ASF
:FULLY-SPECIFIED
:DEGREES
179
root -9.43153 17.6776 -9.01366 -0.494141 -4.34809 -1.6061
lowerback 7.44444 0.957705 1.19659
upperback 0.321857 1.4773 2.54345
thorax -3.88043 0.73285 1.80322
lowerneck -17.2056 -3.58319 -8.93608
upperneck 21.9233 -3.76967 5.08517
head 10.1057 -1.90226 2.76699
rclavicle -7.35503e-015 -7.95139e-015
rhumerus -28.7765 -14.0998 -78.7789
rradius 28.6229
rwrist 9.99079
rhand -12.9375 8.67212
rfingers 7.12502
rthumb 13.1534 -20.893
lclavicle -7.35503e-015 -7.95139e-015
lhumerus -30.5679 11.4772 84.8159
lradius 24.2646
lwrist -11.4207
lhand -12.0503 30.0601
lfingers 7.12502
lthumb 14.0085 59.568
rfemur -5.47326 1.8353 28.3135
rtibia 20.701
rfoot -10.2421 -5.34974
rtoes 5.99398
lfemur -25.3927 0.548518 -17.3717
ltibia 60.6517
lfoot -3.78306 1.05119
ltoes -6.03443
180
root -9.43243 17.6635 -8.89331 -0.397726 -4.36453 -1.81801
lowerback 7.51897 0.992564 1.48317
upperback 0.255272 1.55324 2.56464
thorax -3.9863 0.765194 1.65447
lowerneck -17.1154 -3.64659 -9.05733
upperneck 21.8542 -3.83948 5.12006
head 10.0734 -1.94097 2.78947
rclavicle -5.61567e-015 2.62396e-014
rhumerus -28.5962 -13.3261 -79.047
rradius 29.1224
rwrist 9.42722
rhand -13.6002 7.29313
rfingers 7.12502
rthumb 12.5146 -22.3121
lclavicle -5.61567e-015 2.62396e-014
lhumerus -30.7192 11.4486 84.8755
lradius 24.2433
lwrist -11.3624
lhand -10.5555 33.9989
lfingers 7.12502
lthumb 15.4487 63.4015
rfemur -5.26372 1.72694 28.5596
rtibia 20.9364
rfoot -10.5834 -5.51922
rtoes 4.43848
lfemur -26.0549 0.196211 -17.1778
ltibia 59.384
lfoot -4.17247 1.43706
ltoes -5.56719
181
root -9.43572 17.6467 -8.78088 -0.331723 -4.3935 -1.89182
lowerback 7.66576 1.00372 1.53298
upperback 0.295486 1.57751 2.60851
thorax -4.02737 0.776432 1.66735
lowerneck -17.5854 -3.69447 -9.02954
upperneck 21.968 -3.8219 4.92329
head 10.1976 -1.94823 2.71454
rclavicle 1.54058e-014 3.33958e-014
rhumerus -28.1722 -12.5094 -79.3316
rradius 29.6717
rwrist 9.05235
rhand -13.6322 6.30916
rfingers 7.12502
rthumb 12.4838 -23.298
lclavicle 1.54058e-014 3.33958e-014
lhumerus -30.6836 11.5501 85.0085
lradius 24.0141
lwrist -11.4012
lhand -11.6507 30.828
lfingers 7.12502
lthumb 14.3936 60.3089
rfemur -5.00815 1.73132 28.6579
rtibia 21.1169
rfoot -11.0341 -5.71269
rtoes 4.12509
lfemur -26.6414 -0.119712 -17.116
ltibia 57.9621
lfoot -4.60983 1.81768
ltoes -4.66363
182
root -9.43809 17.6315 -8.6656 -0.112797 -4.4475 -1.98628
lowerback 7.57991 1.02381 1.61189
upperback 0.234685 1.61134 2.63269
thorax -4.04161 0.791949 1.64542
lowerneck -17.9093 -3.65675 -8.72122
upperneck 22.1878 -3.72811 4.51193
head 10.3161 -1.92579 2.52907
rclavicle 4.62174e-015 1.27222e-014
rhumerus -27.8992 -11.7142 -79.5739
rradius 30.3538
rwrist 9.06219
rhand -12.5158 5.12939
rfingers 7.12502
rthumb 13.5599 -24.4091
lclavicle 4.62174e-015 1.27222e-014
lhumerus -30.8931 11.8616 84.9961
lradius 23.9262
lwrist -11.8211
lhand -14.1713 26.4671
lfingers 7.12502
lthumb 11.964 56.1052
rfemur -4.89016 1.64515 28.7474
rtibia 21.2928
rfoot -11.5339 -5.72686
rtoes 4.33121
lfemur -27.2584 -0.303884 -17.0554
ltibia 56.4056
lfoot -5.23922 2.29488
ltoes -4.83616
183
root -9.43727 17.6186 -8.54164 0.132475 -4.50697 -2.13401
lowerback 7.43794 1.09534 1.8196
upperback 0.0953864 1.72437 2.63142
thorax -4.10264 0.843732 1.51663
lowerneck -17.7183 -3.62932 -8.6908
upperneck 22.2168 -3.69792 4.43738
head 10.2863 -1.92077 2.50352
rclavicle -2.98177e-016 -1.82882e-014
rhumerus -27.741 -11.3033 -79.6534
rradius 30.8432
rwrist 9.13275
rhand -12.1573 6.39848
rfingers 7.12502
rthumb 13.9054 -23.1166
lclavicle -2.98177e-016 -1.82882e-014
lhumerus -31.2751 12.0264 84.9287
lradius 24.0485
lwrist -12.3928
lhand -18.0202 19.3203
lfingers 7.12502
lthumb 8.25081 49.1392
rfemur -4.74177 1.36889 28.8874
rtibia 21.4394
rfoot -11.8855 -5.64728
rtoes 4.1013
lfemur -27.7677 -0.474176 -16.9502
ltibia 54.6766
lfoot -5.86137 2.68455
ltoes -5.1989
184
root -9.43633 17.6128 -8.41386 0.143239 -4.58709 -2.22446
lowerback 7.43278 1.17006 2.00582
upperback 0.138787 1.83609 2.5872
thorax -4.04893 0.895246 1.35457
lowerneck -17.4691 -3.6223 -8.86868
upperneck 21.8578 -3.73402 4.76531
head 10.1223 -1.91261 2.64346
rclavicle -8.69683e-015 -4.6118e-014
rhumerus -27.2185 -10.928 -79.8597
rradius 30.986
rwrist 8.8681
rhand -13.4303 11.2903
rfingers 7.12502
rthumb 12.6784 -18.3048
lclavicle -8.69683e-015 -4.6118e-014
lhumerus -31.2857 12.0925 84.904
lradius 23.8048
lwrist -12.7446
lhand -20.3554 13.7864
lfingers 7.12502
lthumb 5.9967 43.6815
rfemur -4.2248 1.2222 28.9755
rtibia 21.4612
rfoot -12.2682 -5.6689
rtoes 4.41471
lfemur -27.9189 -0.714471 -16.883
ltibia 52.7675
lfoot -7.48481 3.13267
ltoes -8.48139
185
root -9.43859 17.605 -8.29696 0.162858 -4.60463 -2.33682
lowerback 7.48983 1.1711 2.16107
upperback 0.204463 1.84982 2.57314
thorax -4.00752 0.899158 1.25086
lowerneck -17.5761 -3.63508 -8.88386
upperneck 21.7363 -3.74907 4.82625
head 10.1014 -1.91081 2.66337
rclavicle 2.6339e-015 -3.97569e-015
rhumerus -26.6762 -10.3443 -80.1485
rradius 31.1683
rwrist 8.22401
rhand -12.2193 3.87639
rfingers 7.12502
rthumb 13.8457 -25.6428
lclavicle 2.6339e-015 -3.97569e-015
lhumerus -31.1721 12.4039 84.8287
lradius 23.4741
lwrist -12.9497
lhand -21.1213 12.5861
lfingers 7.12502
lthumb 5.25718 42.5009
rfemur -3.76877 1.30928 29.1368
rtibia 21.4326
rfoot -12.4749 -6.14629
rtoes 3.77646
lfemur -28.1398 -0.948324 -16.7592
ltibia 50.6936
lfoot -8.77486 3.52728
ltoes -12.4157
186
root -9.43908 17.5959 -8.17801 0.427393 -4.74646 -2.58246
lowerback 7.31294 1.2449 2.43227
upperback 0.196857 1.96552 2.61348
thorax -3.90946 0.95249 1.13204
lowerneck -17.7928 -3.74789 -8.82889
upperneck 21.8501 -3.86644 4.67202
head 10.1883 -1.97669 2.58155
rclavicle -1.21756e-014 -2.3059e-014
rhumerus -26.3358 -9.89884 -80.2576
rradius 31.4733
rwrist 7.68437
rhand -13.3178 9.85693
rfingers 7.12502
rthumb 12.7868 -19.7315
lclavicle -1.21756e-014 -2.3059e-014
lhumerus -31.0969 12.5391 84.9169
lradius 23.2992
lwrist -12.7241
lhand -21.4381 12.5176
lfingers 7.12502
lthumb 4.95136 42.4397
rfemur -3.61619 1.41957 29.4275
rtibia 21.3826
rfoot -12.561 -6.60448
rtoes 2.93242
lfemur -28.5006 -1.08803 -16.4942
ltibia 48.4974
lfoot -8.49096 4.04169
ltoes -10.7713
187
root -9.43733 17.5872 -8.04921 0.543837 -5.01481 -2.59459
lowerback 7.17028 1.39292 2.46292
upperback 0.22998 2.1557 2.5648
thorax -3.79254 1.04695 1.0484
lowerneck -17.8897 -3.83391 -8.73553
upperneck 21.8329 -3.99559 4.63655
head 10.2072 -2.03086 2.53354
rclavicle 3.01656e-014 9.54166e-015
rhumerus -26.1089 -9.6133 -80.3512
rradius 31.8623
rwrist 7.30083
rhand -13.483 11.0688
rfingers 7.12502
rthumb 12.6275 -18.5295
lclavicle 3.01656e-014 9.54166e-015
lhumerus -31.0982 12.408 85.0683
lradius 23.1147
lwrist -12.4103
lhand -12.8745 27.7683
lfingers 7.12502
lthumb 13.2142 57.3294
rfemur -3.23363 1.46775 29.3939
rtibia 21.2786
rfoot -12.7874 -6.6697
rtoes 3.2563
lfemur -28.4445 -1.2753 -16.4984
ltibia 46.192
lfoot -8.12533 4.69029
ltoes -7.57447
